<?xml version="1.0" standalone="no"?>
<?xml-stylesheet href="light.css" type="text/css"?>
<!DOCTYPE svg PUBLIC "-//W3C//DTD SVG 1.1//EN" "http://www.w3.org/Graphics/SVG/1.1/DTD/svg11.dtd">
<svg xmlns="http://www.w3.org/2000/svg" version="1.1" viewBox="0 0 1000 1000"><g transform="translate(-223.7379594907784,67.40423302152277) scale(1.074581190032211)"><path class="tree-link" d="M-1418.958,360C-1418.958,60 -1311.2280000000003,71.5 -1311.2280000000003,71.5" style="stroke-opacity: 1;"></path><path class="tree-link" d="M-1612.8720000000003,360C-1612.8720000000003,300 -1612.8720000000003,311.5 -1612.8720000000003,311.5" style="stroke-opacity: 1;"></path><path class="tree-link" d="M-1031.1300000000003,360C-1031.1300000000003,120 -901.8540000000003,131.5 -901.8540000000003,131.5" style="stroke-opacity: 1;"></path><path class="tree-link" d="M-1225.044,360C-1225.044,300 -1225.044,311.5 -1225.044,311.5" style="stroke-opacity: 1;"></path><path class="tree-link" d="M132.35400000000016,360C132.35400000000016,0 62.32950000000001,11.5 62.32950000000001,11.5" style="stroke-opacity: 1;"></path><path class="tree-link" d="M-1311.2280000000003,60C-1311.2280000000003,0 62.32950000000001,11.5 62.32950000000001,11.5" style="stroke-opacity: 1;"></path><path class="tree-link" d="M520.182,240C520.182,0 62.32950000000001,11.5 62.32950000000001,11.5" style="stroke-opacity: 1;"></path><path class="tree-link" d="M908.01,360C908.01,0 62.32950000000001,11.5 62.32950000000001,11.5" style="stroke-opacity: 1;"></path><path class="tree-link" d="M-1612.8720000000003,300C-1612.8720000000003,60 -1311.2280000000003,71.5 -1311.2280000000003,71.5" style="stroke-opacity: 1;"></path><path class="tree-link" d="M-901.8540000000003,120C-901.8540000000003,60 -1311.2280000000003,71.5 -1311.2280000000003,71.5" style="stroke-opacity: 1;"></path><path class="tree-link" d="M326.2680000000002,300C326.2680000000002,240 520.182,251.5 520.182,251.5" style="stroke-opacity: 1;"></path><path class="tree-link" d="M520.1820000000004,360C520.1820000000004,240 520.182,251.5 520.182,251.5" style="stroke-opacity: 1;"></path><path class="tree-link" d="M714.0960000000001,300C714.0960000000001,240 520.182,251.5 520.182,251.5" style="stroke-opacity: 1;"></path><path class="tree-link" d="M-1225.044,300C-1225.044,120 -901.8540000000003,131.5 -901.8540000000003,131.5" style="stroke-opacity: 1;"></path><path class="tree-link" d="M-449.3880000000001,180C-449.3880000000001,120 -901.8540000000003,131.5 -901.8540000000003,131.5" style="stroke-opacity: 1;"></path><path class="tree-link" d="M326.2680000000002,360C326.2680000000002,300 326.2680000000002,311.5 326.2680000000002,311.5" style="stroke-opacity: 1;"></path><path class="tree-link" d="M714.0960000000001,360C714.0960000000001,300 714.0960000000001,311.5 714.0960000000001,311.5" style="stroke-opacity: 1;"></path><path class="tree-link" d="M-837.2160000000002,360C-837.2160000000002,180 -449.3880000000001,191.5 -449.3880000000001,191.5" style="stroke-opacity: 1;"></path><path class="tree-link" d="M-449.3880000000001,240C-449.3880000000001,180 -449.3880000000001,191.5 -449.3880000000001,191.5" style="stroke-opacity: 1;"></path><path class="tree-link" d="M-61.55999999999993,360C-61.55999999999993,180 -449.3880000000001,191.5 -449.3880000000001,191.5" style="stroke-opacity: 1;"></path><path class="tree-link" d="M-643.3020000000001,300C-643.3020000000001,240 -449.3880000000001,251.5 -449.3880000000001,251.5" style="stroke-opacity: 1;"></path><path class="tree-link" d="M-449.3880000000001,360C-449.3880000000001,240 -449.3880000000001,251.5 -449.3880000000001,251.5" style="stroke-opacity: 1;"></path><path class="tree-link" d="M-255.47400000000005,300C-255.47400000000005,240 -449.3880000000001,251.5 -449.3880000000001,251.5" style="stroke-opacity: 1;"></path><path class="tree-link" d="M-643.3020000000001,360C-643.3020000000001,300 -643.3020000000001,311.5 -643.3020000000001,311.5" style="stroke-opacity: 1;"></path><path class="tree-link" d="M-255.47400000000005,360C-255.47400000000005,300 -255.47400000000005,311.5 -255.47400000000005,311.5" style="stroke-opacity: 1;"></path><g class="tree-node tree-root" transform="translate(0,0)" style="opacity: 1;"><rect width="124.65900000000002" height="23" rx="0" ry="0"></rect><text class="node-text" y="11.5" dy=".35em" x="46.32916049194337">prog</text><text class="token-range" x="0" y="11.5" dx="0" dy="-1.8em">⨳ 0-13</text><text class="token-value" x="0" y="11.5" dy="2.5em" dx="62.32950000000001"></text></g><g class="tree-node" transform="translate(-1373.5575000000003,60)" style="opacity: 1;"><rect width="124.65900000000002" height="23" rx="0" ry="0"></rect><text class="node-text" y="11.5" dy=".35em" x="46.77806071472169">expr</text><text class="token-range" x="0" y="11.5" dx="0" dy="-1.8em">⨳ 0-8</text><text class="token-value" x="0" y="11.5" dy="2.5em" dx="62.32950000000001"></text></g><g class="tree-node tree-leaf" transform="translate(70.02449798583984, 360)" style="opacity: 1;"><rect width="124.65900000000002" height="23" rx="10" ry="10"></rect><text class="node-text" y="11.5" dy=".35em" x="25.906190673828135">NEWLINE</text><text class="token-range" x="0" y="11.5" dx="0" dy="-1.8em">⨳ 9</text><text class="token-value" x="0" y="11.5" dy="2.5em" dx="62.32950000000001">
</text></g><g class="tree-node" transform="translate(457.8525,240)" style="opacity: 1;"><rect width="124.65900000000002" height="23" rx="0" ry="0"></rect><text class="node-text" y="11.5" dy=".35em" x="46.77806071472169">expr</text><text class="token-range" x="0" y="11.5" dx="0" dy="-1.8em">⨳ 10-12</text><text class="token-value" x="0" y="11.5" dy="2.5em" dx="62.32950000000001"></text></g><g class="tree-node tree-leaf" transform="translate(845.6804999999999,360)" style="opacity: 1;"><rect width="124.65900000000002" height="23" rx="10" ry="10"></rect><text class="node-text" y="11.5" dy=".35em" x="25.906190673828135">NEWLINE</text><text class="token-range" x="0" y="11.5" dx="0" dy="-1.8em">⨳ 13</text><text class="token-value" x="0" y="11.5" dy="2.5em" dx="62.32950000000001">
</text></g><g class="tree-node" transform="translate(-1675.2015000000004,300)" style="opacity: 1;"><rect width="124.65900000000002" height="23" rx="0" ry="0"></rect><text class="node-text" y="11.5" dy=".35em" x="46.77806071472169">expr</text><text class="token-range" x="0" y="11.5" dx="0" dy="-1.8em">⨳ 0</text><text class="token-value" x="0" y="11.5" dy="2.5em" dx="62.32950000000001"></text></g><g class="tree-node tree-leaf" transform="translate(-1481.2874755859375, 360)" style="opacity: 1;"><rect width="124.65900000000002" height="23" rx="10" ry="10"></rect><text class="node-text" y="11.5" dy=".35em" x="44.10808543395997">T__3</text><text class="token-range" x="0" y="11.5" dx="0" dy="-1.8em">⨳ 1</text><text class="token-value" x="0" y="11.5" dy="2.5em" dx="57.93419055175782">+</text></g><g class="tree-node" transform="translate(-964.1835000000003,120)" style="opacity: 1;"><rect width="124.65900000000002" height="23" rx="0" ry="0"></rect><text class="node-text" y="11.5" dy=".35em" x="46.77806071472169">expr</text><text class="token-range" x="0" y="11.5" dx="0" dy="-1.8em">⨳ 2-8</text><text class="token-value" x="0" y="11.5" dy="2.5em" dx="62.32950000000001"></text></g><g class="tree-node" transform="translate(263.9385000000002,300)" style="opacity: 1;"><rect width="124.65900000000002" height="23" rx="0" ry="0"></rect><text class="node-text" y="11.5" dy=".35em" x="46.77806071472169">expr</text><text class="token-range" x="0" y="11.5" dx="0" dy="-1.8em">⨳ 10</text><text class="token-value" x="0" y="11.5" dy="2.5em" dx="62.32950000000001"></text></g><g class="tree-node tree-leaf" transform="translate(457.8525000000003,360)" style="opacity: 1;"><rect width="124.65900000000002" height="23" rx="10" ry="10"></rect><text class="node-text" y="11.5" dy=".35em" x="44.10808543395997">T__1</text><text class="token-range" x="0" y="11.5" dx="0" dy="-1.8em">⨳ 11</text><text class="token-value" x="0" y="11.5" dy="2.5em" dx="57.93419055175782">*</text></g><g class="tree-node" transform="translate(651.7665000000001,300)" style="opacity: 1;"><rect width="124.65900000000002" height="23" rx="0" ry="0"></rect><text class="node-text" y="11.5" dy=".35em" x="46.77806071472169">expr</text><text class="token-range" x="0" y="11.5" dx="0" dy="-1.8em">⨳ 12</text><text class="token-value" x="0" y="11.5" dy="2.5em" dx="62.32950000000001"></text></g><g class="tree-node tree-leaf" transform="translate(-1675.2015380859375, 360)" style="opacity: 1;"><rect width="124.65900000000002" height="23" rx="10" ry="10"></rect><text class="node-text" y="11.5" dy=".35em" x="49.45194224548341">INT</text><text class="token-range" x="0" y="11.5" dx="0" dy="-1.8em">⨳ 0</text><text class="token-value" x="0" y="11.5" dy="2.5em" dx="49.14357165527345">100</text></g><g class="tree-node" transform="translate(-1287.3735000000001,300)" style="opacity: 1;"><rect width="124.65900000000002" height="23" rx="0" ry="0"></rect><text class="node-text" y="11.5" dy=".35em" x="46.77806071472169">expr</text><text class="token-range" x="0" y="11.5" dx="0" dy="-1.8em">⨳ 2</text><text class="token-value" x="0" y="11.5" dy="2.5em" dx="62.32950000000001"></text></g><g class="tree-node tree-leaf" transform="translate(-1093.45947265625, 360)" style="opacity: 1;"><rect width="124.65900000000002" height="23" rx="10" ry="10"></rect><text class="node-text" y="11.5" dy=".35em" x="44.10808543395997">T__1</text><text class="token-range" x="0" y="11.5" dx="0" dy="-1.8em">⨳ 3</text><text class="token-value" x="0" y="11.5" dy="2.5em" dx="57.93419055175782">*</text></g><g class="tree-node" transform="translate(-511.7175000000001,180)" style="opacity: 1;"><rect width="124.65900000000002" height="23" rx="0" ry="0"></rect><text class="node-text" y="11.5" dy=".35em" x="46.77806071472169">expr</text><text class="token-range" x="0" y="11.5" dx="0" dy="-1.8em">⨳ 4-8</text><text class="token-value" x="0" y="11.5" dy="2.5em" dx="62.32950000000001"></text></g><g class="tree-node tree-leaf" transform="translate(263.9385000000002,360)" style="opacity: 1;"><rect width="124.65900000000002" height="23" rx="10" ry="10"></rect><text class="node-text" y="11.5" dy=".35em" x="49.45194224548341">INT</text><text class="token-range" x="0" y="11.5" dx="0" dy="-1.8em">⨳ 10</text><text class="token-value" x="0" y="11.5" dy="2.5em" dx="57.93419055175782">2</text></g><g class="tree-node tree-leaf" transform="translate(651.7665000000001,360)" style="opacity: 1;"><rect width="124.65900000000002" height="23" rx="10" ry="10"></rect><text class="node-text" y="11.5" dy=".35em" x="49.45194224548341">INT</text><text class="token-range" x="0" y="11.5" dx="0" dy="-1.8em">⨳ 12</text><text class="token-value" x="0" y="11.5" dy="2.5em" dx="57.93419055175782">4</text></g><g class="tree-node tree-leaf" transform="translate(-1287.37353515625, 360)" style="opacity: 1;"><rect width="124.65900000000002" height="23" rx="10" ry="10"></rect><text class="node-text" y="11.5" dy=".35em" x="49.45194224548341">INT</text><text class="token-range" x="0" y="11.5" dx="0" dy="-1.8em">⨳ 2</text><text class="token-value" x="0" y="11.5" dy="2.5em" dx="57.93419055175782">2</text></g><g class="tree-node tree-leaf" transform="translate(-899.5455000000003,360)" style="opacity: 1;"><rect width="124.65900000000002" height="23" rx="10" ry="10"></rect><text class="node-text" y="11.5" dy=".35em" x="44.10808543395997">T__5</text><text class="token-range" x="0" y="11.5" dx="0" dy="-1.8em">⨳ 4</text><text class="token-value" x="0" y="11.5" dy="2.5em" dx="57.93419055175782">(</text></g><g class="tree-node" transform="translate(-511.7175000000001,240)" style="opacity: 1;"><rect width="124.65900000000002" height="23" rx="0" ry="0"></rect><text class="node-text" y="11.5" dy=".35em" x="46.77806071472169">expr</text><text class="token-range" x="0" y="11.5" dx="0" dy="-1.8em">⨳ 5-7</text><text class="token-value" x="0" y="11.5" dy="2.5em" dx="62.32950000000001"></text></g><g class="tree-node tree-leaf" transform="translate(-123.88949999999994,360)" style="opacity: 1;"><rect width="124.65900000000002" height="23" rx="10" ry="10"></rect><text class="node-text" y="11.5" dy=".35em" x="44.10808543395997">T__6</text><text class="token-range" x="0" y="11.5" dx="0" dy="-1.8em">⨳ 8</text><text class="token-value" x="0" y="11.5" dy="2.5em" dx="57.93419055175782">)</text></g><g class="tree-node" transform="translate(-705.6315000000002,300)" style="opacity: 1;"><rect width="124.65900000000002" height="23" rx="0" ry="0"></rect><text class="node-text" y="11.5" dy=".35em" x="46.77806071472169">expr</text><text class="token-range" x="0" y="11.5" dx="0" dy="-1.8em">⨳ 5</text><text class="token-value" x="0" y="11.5" dy="2.5em" dx="62.32950000000001"></text></g><g class="tree-node tree-leaf" transform="translate(-511.7175000000001,360)" style="opacity: 1;"><rect width="124.65900000000002" height="23" rx="10" ry="10"></rect><text class="node-text" y="11.5" dy=".35em" x="44.10808543395997">T__4</text><text class="token-range" x="0" y="11.5" dx="0" dy="-1.8em">⨳ 6</text><text class="token-value" x="0" y="11.5" dy="2.5em" dx="57.93419055175782">-</text></g><g class="tree-node" transform="translate(-317.80350000000004,300)" style="opacity: 1;"><rect width="124.65900000000002" height="23" rx="0" ry="0"></rect><text class="node-text" y="11.5" dy=".35em" x="46.77806071472169">expr</text><text class="token-range" x="0" y="11.5" dx="0" dy="-1.8em">⨳ 7</text><text class="token-value" x="0" y="11.5" dy="2.5em" dx="62.32950000000001"></text></g><g class="tree-node tree-leaf" transform="translate(-705.6315000000002,360)" style="opacity: 1;"><rect width="124.65900000000002" height="23" rx="10" ry="10"></rect><text class="node-text" y="11.5" dy=".35em" x="49.45194224548341">INT</text><text class="token-range" x="0" y="11.5" dx="0" dy="-1.8em">⨳ 5</text><text class="token-value" x="0" y="11.5" dy="2.5em" dx="57.93419055175782">3</text></g><g class="tree-node tree-leaf" transform="translate(-317.80350000000004,360)" style="opacity: 1;"><rect width="124.65900000000002" height="23" rx="10" ry="10"></rect><text class="node-text" y="11.5" dy=".35em" x="49.45194224548341">INT</text><text class="token-range" x="0" y="11.5" dx="0" dy="-1.8em">⨳ 7</text><text class="token-value" x="0" y="11.5" dy="2.5em" dx="57.93419055175782">4</text></g></g></svg>